Coordinates
version=1
nRows=14
nColumns=63
inDegrees=yes

Units are S.I. units (second, meters, Newtons, ...)
If the header above contains a line with 'inDegrees', this indicates whether rotational values are in degrees (yes) or radians (no).

endheader
time	pelvis_tilt	pelvis_list	pelvis_rotation	pelvis_tx	pelvis_ty	pelvis_tz	hip_flexion_r	hip_adduction_r	hip_rotation_r	knee_angle_r	knee_angle_r_beta	ankle_angle_r	subtalar_angle_r	mtp_angle_r	hip_flexion_l	hip_adduction_l	hip_rotation_l	knee_angle_l	knee_angle_l_beta	ankle_angle_l	subtalar_angle_l	mtp_angle_l	L5_S1_Flex_Ext	L5_S1_Lat_Bending	L5_S1_axial_rotation	L4_L5_Flex_Ext	L4_L5_Lat_Bending	L4_L5_axial_rotation	L3_L4_Flex_Ext	L3_L4_Lat_Bending	L3_L4_axial_rotation	L2_L3_Flex_Ext	L2_L3_Lat_Bending	L2_L3_axial_rotation	L1_L2_Flex_Ext	L1_L2_Lat_Bending	L1_L2_axial_rotation	L1_T12_Flex_Ext	L1_T12_Lat_Bending	L1_T12_axial_rotation	Abs_r3	Abs_r2	Abs_r1	Abs_t1	Abs_t2	neck_flexion	neck_bending	neck_rotation	arm_flex_r	arm_add_r	arm_rot_r	elbow_flex_r	pro_sup_r	wrist_flex_r	wrist_dev_r	arm_flex_l	arm_add_l	arm_rot_l	elbow_flex_l	pro_sup_l	wrist_flex_l	wrist_dev_l
2.016667	-1.121041	-7.291338	88.388738	0.438838	0.736241	0.991054	5.622862	-0.914993	-3.494899	9.630050	0.168076	31.440045	10.525510	0.000000	2.856464	0.807932	3.077049	6.297592	0.109914	29.118508	-10.734724	0.000000	-0.211598	0.141865	2.786203	-0.392959	0.188681	2.960341	-0.347634	0.344932	2.960341	-0.241835	0.344932	2.437928	-0.196490	0.289292	2.263790	-0.120907	0.219750	2.089652	-1.511423	1.604810	15.496025	0.000000	0.000000	19.019535	-1.434856	6.073523	-8.648543	-12.540184	10.569015	36.739928	83.020124	-5.575450	-1.590301	13.156213	-10.256221	64.307217	22.061627	82.808893	-7.319128	0.272330
2.033333	-1.113991	-7.280632	88.248316	0.438999	0.736021	0.991725	5.740411	-0.914956	-3.608031	9.771740	0.170549	31.507862	10.906547	0.000000	2.894570	0.789521	2.610771	6.354336	0.110904	29.240651	-10.373371	0.000000	-0.218381	0.136640	2.890160	-0.405554	0.181732	3.070795	-0.358777	0.332227	3.070795	-0.249587	0.332227	2.528890	-0.202788	0.278637	2.348255	-0.124783	0.211656	2.167620	-1.559870	1.545702	16.074203	0.000000	0.000000	18.825551	-1.337866	6.327859	-8.649517	-12.441164	10.338390	36.566276	82.711289	-5.395951	-1.479784	13.664538	-9.949360	67.709486	20.290779	80.532845	-6.497013	0.286129
2.050000	-1.138130	-7.295591	88.143768	0.439190	0.735777	0.992384	5.841642	-0.938432	-3.691866	9.835219	0.171657	31.535446	11.201024	0.000000	2.976551	0.791325	1.958565	6.417572	0.112008	29.469607	-9.727808	0.000000	-0.221714	0.126662	2.975442	-0.411746	0.168460	3.161407	-0.364255	0.307965	3.161407	-0.253397	0.307965	2.603512	-0.205884	0.258288	2.417547	-0.126688	0.196199	2.231582	-1.583684	1.432821	16.548517	0.000000	0.000000	18.707714	-1.303180	6.511361	-8.574266	-12.329825	10.281507	36.301651	82.347752	-5.247846	-1.424959	14.067378	-9.709320	71.396300	18.704890	77.533003	-5.760662	0.047748
2.066667	-1.177346	-7.319391	88.086159	0.439387	0.735531	0.992991	5.906117	-0.966884	-3.729666	9.823286	0.171449	31.535275	11.370009	0.000000	3.066172	0.811787	1.406314	6.451942	0.112608	29.706500	-9.167654	0.000000	-0.223946	0.114068	3.040210	-0.415891	0.151710	3.230223	-0.367922	0.277345	3.230223	-0.255948	0.277345	2.660184	-0.207957	0.232607	2.470171	-0.127963	0.176691	2.280158	-1.599627	1.290360	16.908737	0.000000	0.000000	18.681702	-1.259974	6.643569	-8.431083	-12.209842	10.340877	35.966728	82.011663	-5.104926	-1.431392	14.344926	-9.528950	75.155304	17.336250	73.956273	-5.091850	-0.435070
2.083333	-1.225020	-7.355059	88.068651	0.439571	0.735287	0.993529	5.945355	-0.997756	-3.747707	9.754857	0.170254	31.516892	11.461610	0.000000	3.173392	0.834615	0.795513	6.485119	0.113187	30.004839	-8.468304	0.000000	-0.224453	0.100489	3.083724	-0.416832	0.133651	3.276457	-0.368755	0.244330	3.276457	-0.256528	0.244330	2.698258	-0.208427	0.204918	2.505526	-0.128253	0.155658	2.312793	-1.603248	1.136756	17.150748	0.000000	0.000000	18.758495	-1.208740	6.739295	-8.224529	-12.100020	10.554845	35.580878	81.711484	-5.055321	-1.536762	14.496412	-9.404422	78.859323	16.201176	69.978027	-4.511615	-1.117680
2.100000	-1.275440	-7.405421	88.105569	0.439676	0.735046	0.993959	5.961871	-1.026226	-3.710200	9.634819	0.168159	31.483063	11.423777	0.000000	3.299257	0.858036	0.174564	6.522860	0.113845	30.352672	-7.662370	0.000000	-0.222393	0.087480	3.098458	-0.413006	0.116348	3.292112	-0.365370	0.212699	3.292112	-0.254173	0.212699	2.711151	-0.206514	0.178389	2.517497	-0.127075	0.135506	2.323844	-1.588532	0.989590	17.232695	0.000000	0.000000	18.938951	-1.127544	6.833985	-7.957270	-12.009152	10.902492	35.157087	81.460984	-5.061511	-1.713788	14.494514	-9.321046	82.338994	15.289203	65.773807	-4.078233	-1.996581
2.116667	-1.316510	-7.461267	88.182488	0.439697	0.734836	0.994318	5.973382	-1.045355	-3.670877	9.514574	0.166061	31.452858	11.317888	0.000000	3.432242	0.869982	-0.464871	6.562260	0.114533	30.725473	-6.767097	0.000000	-0.219619	0.077286	3.090968	-0.407854	0.102791	3.284154	-0.360812	0.187914	3.284154	-0.251002	0.187914	2.704597	-0.203938	0.157603	2.511412	-0.125490	0.119717	2.318226	-1.568716	0.874280	17.191037	0.000000	0.000000	19.210933	-1.031895	6.912367	-7.635808	-11.957697	11.402210	34.711199	81.238261	-5.168474	-1.941125	14.384042	-9.260523	85.485095	14.585412	61.481806	-3.695679	-2.899282
2.133333	-1.340852	-7.533249	88.314234	0.439570	0.734642	0.994569	5.982267	-1.048486	-3.600500	9.378264	0.163682	31.412136	11.102769	0.000000	3.589638	0.867594	-1.075465	6.622397	0.115583	31.115486	-5.832661	0.000000	-0.213046	0.072279	3.057794	-0.395648	0.096131	3.248906	-0.350014	0.175738	3.248906	-0.243490	0.175738	2.675569	-0.197835	0.147391	2.484457	-0.121735	0.111960	2.293345	-1.521768	0.817631	17.006531	0.000000	0.000000	19.533965	-0.860039	7.132599	-7.297545	-11.951322	11.975681	34.280386	81.089765	-5.339797	-2.182186	14.159308	-9.191256	88.245380	14.018629	57.286710	-3.348789	-3.804361
2.150000	-1.347663	-7.600204	88.459366	0.439358	0.734477	0.994754	5.998984	-1.050001	-3.674250	9.287696	0.162101	31.422049	11.053980	0.000000	3.736715	0.851048	-1.639124	6.676801	0.116532	31.492309	-4.946161	0.000000	-0.205819	0.071381	3.023499	-0.382227	0.094937	3.212468	-0.338140	0.173556	3.212468	-0.235231	0.173556	2.645562	-0.191124	0.145560	2.456593	-0.117605	0.110569	2.267624	-1.470146	0.807475	16.815795	0.000000	0.000000	19.901449	-0.708021	7.239862	-6.993911	-11.966181	12.511405	33.886288	80.957246	-5.557603	-2.429410	13.996526	-9.143960	91.015704	13.545092	53.070978	-2.919101	-4.657542
2.166667	-1.341413	-7.655995	88.626676	0.439069	0.734353	0.994861	6.014730	-1.047967	-3.814092	9.240673	0.161280	31.459936	11.039642	0.000000	3.868772	0.823109	-2.176948	6.731635	0.117489	31.860754	-4.060940	0.000000	-0.197993	0.073987	2.979785	-0.367694	0.098403	3.166021	-0.325283	0.179893	3.166021	-0.226287	0.179893	2.607312	-0.183857	0.150875	2.421075	-0.113133	0.114606	2.234838	-1.414247	0.836959	16.572668	0.000000	0.000000	20.288963	-0.494610	7.335455	-6.693504	-12.015568	13.123283	33.507361	80.787113	-5.829889	-2.697342	13.821093	-9.108977	93.428737	13.208140	49.201352	-2.476289	-5.329400
2.183333	-1.344230	-7.696429	88.790635	0.438791	0.734281	0.994937	6.042537	-1.067299	-4.060695	9.263277	0.161675	31.549190	11.148049	0.000000	3.985486	0.799584	-2.757492	6.795337	0.118601	32.231938	-3.107857	0.000000	-0.189795	0.076003	2.942128	-0.352468	0.101084	3.126011	-0.311814	0.184794	3.126011	-0.216917	0.184794	2.574362	-0.176244	0.154986	2.390479	-0.108449	0.117729	2.206596	-1.355687	0.859764	16.363234	0.000000	0.000000	20.674138	-0.271114	7.251237	-6.432883	-12.057134	13.692524	33.157590	80.613016	-6.128684	-2.982475	13.792777	-9.094945	96.220807	12.929779	45.241825	-2.171872	-5.936737
2.200000	-1.350446	-7.722796	88.952435	0.438548	0.734237	0.994954	6.077518	-1.096020	-4.376042	9.342285	0.163054	31.680149	11.321983	0.000000	4.080207	0.777373	-3.308925	6.858096	0.119696	32.582946	-2.186481	0.000000	-0.181135	0.077845	2.901517	-0.336385	0.103534	3.082862	-0.297586	0.189273	3.082862	-0.207019	0.189273	2.538828	-0.168202	0.158742	2.357483	-0.103500	0.120582	2.176138	-1.293828	0.880599	16.137369	0.000000	0.000000	21.094599	-0.108830	6.961403	-6.201809	-12.107294	14.280141	32.868142	80.445801	-6.447484	-3.265348	13.773030	-9.153399	98.666171	12.869239	41.646047	-1.956647	-6.398740
2.216667	-1.376020	-7.733562	89.070691	0.438373	0.734247	0.994922	6.127929	-1.149600	-4.716932	9.486017	0.165562	31.855163	11.565130	0.000000	4.151044	0.774037	-3.855759	6.930870	0.120967	32.901994	-1.312823	0.000000	-0.171637	0.077506	2.867600	-0.318747	0.103083	3.046825	-0.281982	0.188448	3.046825	-0.196164	0.188448	2.509150	-0.159382	0.158050	2.329925	-0.098073	0.120057	2.150700	-1.225985	0.876761	15.948728	0.000000	0.000000	21.489151	0.040056	6.450664	-6.013345	-12.146050	14.820070	32.631195	80.269105	-6.773666	-3.529306	13.782280	-9.219437	100.767719	12.899417	38.594167	-1.849470	-6.656902
2.233333	-1.412622	-7.731875	89.083571	0.438361	0.734282	0.994843	6.202142	-1.205287	-4.971669	9.685661	0.169047	32.058712	11.810392	0.000000	4.180075	0.782150	-4.383063	6.981404	0.121848	33.162302	-0.583610	0.000000	-0.163190	0.076298	2.854854	-0.303061	0.101476	3.033283	-0.268105	0.185510	3.033283	-0.186510	0.185510	2.497997	-0.151538	0.155586	2.319569	-0.093247	0.118185	2.141141	-1.165652	0.863095	15.877842	0.000000	0.000000	21.910862	0.103020	5.703147	-5.910614	-12.178607	15.219052	32.514862	80.116774	-7.053997	-3.769380	13.862420	-9.304016	102.651736	13.029858	36.217827	-1.740255	-6.772018
